
<svg xmlns="http://www.w3.org/2000/svg" xmlns:xlink="http://www.w3.org/1999/xlink" version="1.1" width="2120.293870565735" height="3290.559709024125" viewBox="0 0 2120.293870565735 3290.559709024125">
	
	<g transform="scale(14.527985451206238) translate(10, 10)">
		<defs id="SvgjsDefs1285"/><g id="SvgjsG1286" featureKey="Wg4LIr-0" transform="matrix(10.477658304799025,0,0,10.477658304799025,11.665646181232217,-52.5531660959805)" fill="#fff"><path d="M0.7 20 l0 -2.28 l4.52 0 c0.9 0 1.64 -0.72 1.64 -1.64 c0 -0.9 -0.74 -1.64 -1.62 -1.64 l-0.02 0 l-4.52 0 l0 -2.46 l4.24 0 c0.76 0 1.4 -0.62 1.4 -1.4 c0 -0.76 -0.64 -1.4 -1.4 -1.4 l0 0 l-4.24 0 l0 -2.16 l4.18 0 c1.98 0 3.58 1.6 3.58 3.56 c0 0.92 -0.34 1.74 -0.88 2.36 c0.94 0.72 1.56 1.86 1.56 3.14 c0 2.18 -1.76 3.92 -3.92 3.92 l-4.52 0 z"/></g><g id="SvgjsG1287" featureKey="qafomr-0" transform="matrix(1.7,0,0,1.7,-2.040000486373901,166.03800058364868)" fill="#fff"><path d="M9.16 12.219999999999999 c1.4 0.4 2.84 1.66 2.84 3.66 c0 2.56 -1.6 4.12 -5.1 4.12 l-5.7 0 l0 -14 l5.32 0 c2.94 0 4.42 1.66 4.42 3.54 c0 1.54 -1 2.32 -1.78 2.68 z M6.22 8.8 l-1.8 0 l0 2.5 l1.8 0 c1.14 0 1.52 -0.52 1.52 -1.26 c0 -0.8 -0.48 -1.24 -1.52 -1.24 z M6.72 17.2 c1.42 0 2.06 -0.6 2.06 -1.74 c0 -0.96 -0.64 -1.58 -2.22 -1.58 l-2.14 0 l0 3.32 l2.3 0 z M18.880000000000003 9.42 c2.36 0 5.66 1.78 5 6.48 l-7.26 0 c0.36 1.08 1.3 1.64 2.56 1.64 c1.28 0 1.68 -0.28 2.4 -0.58 l1.74 1.68 c-0.92 0.9 -2.16 1.56 -4.26 1.56 c-2.58 0 -5.66 -1.78 -5.66 -5.36 c0 -3.64 3.12 -5.42 5.48 -5.42 z M18.880000000000003 12.120000000000001 c-0.9 0 -1.82 0.52 -2.22 1.56 l4.42 0 c-0.32 -1.04 -1.3 -1.56 -2.2 -1.56 z M31.520000000000003 9.42 c2.38 0 5.12 1.78 5.12 5.36 c0 3.72 -2.74 5.42 -5.12 5.42 c-1.6 0 -2.54 -0.88 -2.68 -1.24 l0 4.84 l-3.16 0 l0 -6.02 l0 -8.18 l3.16 0 l0 0.96 c0.14 -0.22 1.08 -1.14 2.68 -1.14 z M31.060000000000002 17.42 c1.36 0 2.52 -0.92 2.52 -2.64 c0 -1.66 -1.16 -2.58 -2.52 -2.58 c-1.3 0 -2.36 0.9 -2.36 2.58 c0 1.74 1.06 2.64 2.36 2.64 z M41.52 5.859999999999999 l0 14.14 l-3.16 0 l0 -14.14 l3.16 0 z M48.720000000000006 9.42 c2.36 0 5.48 1.78 5.48 5.42 c0 3.66 -3.12 5.36 -5.48 5.36 s-5.48 -1.7 -5.48 -5.36 c0 -3.64 3.12 -5.42 5.48 -5.42 z M48.720000000000006 12.2 c-1.2 0 -2.42 0.92 -2.42 2.64 c0 1.66 1.22 2.58 2.42 2.58 s2.44 -0.92 2.44 -2.58 c0 -1.72 -1.24 -2.64 -2.44 -2.64 z M62.60000000000001 9.44 c0.28 0 0.56 0 0.82 0.06 l0 3.02 c-0.24 -0.06 -0.52 -0.06 -0.72 -0.06 c-1.92 0 -3.46 1.38 -3.62 3.3 l0 4.24 l-3.16 0 l0 -10.4 l3.16 0 l0 2.54 c0.48 -1.56 1.68 -2.7 3.52 -2.7 z M70.20000000000002 9.42 c2.36 0 5.66 1.78 5 6.48 l-7.26 0 c0.36 1.08 1.3 1.64 2.56 1.64 c1.28 0 1.68 -0.28 2.4 -0.58 l1.74 1.68 c-0.92 0.9 -2.16 1.56 -4.26 1.56 c-2.58 0 -5.66 -1.78 -5.66 -5.36 c0 -3.64 3.12 -5.42 5.48 -5.42 z M70.20000000000002 12.120000000000001 c-0.9 0 -1.82 0.52 -2.22 1.56 l4.42 0 c-0.32 -1.04 -1.3 -1.56 -2.2 -1.56 z"/></g>
	</g>
</svg>
